<mxfile host="app.diagrams.net" agent="Mozilla/5.0 (Windows NT 10.0; Win64; x64; rv:138.0) Gecko/20100101 Firefox/138.0" version="27.0.5">
  <diagram name="Pagina-1" id="aeC4FXhMWtoKYZdVebEG">
    <mxGraphModel dx="2505" dy="893" grid="1" gridSize="10" guides="1" tooltips="1" connect="1" arrows="1" fold="1" page="1" pageScale="1" pageWidth="827" pageHeight="1169" math="0" shadow="0">
      <root>
        <mxCell id="0" />
        <mxCell id="1" parent="0" />
        <mxCell id="vbBbySqdFZsMvgRl_-CA-10" style="edgeStyle=orthogonalEdgeStyle;rounded=1;orthogonalLoop=1;jettySize=auto;html=1;exitX=1;exitY=0.5;exitDx=0;exitDy=0;shadow=1;strokeColor=default;strokeWidth=4;align=center;verticalAlign=middle;fontFamily=Helvetica;fontSize=14;fontColor=default;labelBackgroundColor=default;endArrow=classic;flowAnimation=0;curved=0;" edge="1" parent="1" source="YtOpJtN7zABE95JCtQtZ-8" target="YtOpJtN7zABE95JCtQtZ-17">
          <mxGeometry relative="1" as="geometry" />
        </mxCell>
        <mxCell id="YtOpJtN7zABE95JCtQtZ-8" value="" style="rounded=1;html=1;fillColor=#fff2cc;strokeColor=#d6b656;shadow=1;textShadow=1;whiteSpace=wrap;fontSize=14;" parent="1" vertex="1">
          <mxGeometry x="-278" y="382.5" width="180" height="180" as="geometry" />
        </mxCell>
        <mxCell id="vbBbySqdFZsMvgRl_-CA-1" style="edgeStyle=orthogonalEdgeStyle;rounded=1;orthogonalLoop=1;jettySize=auto;html=1;exitX=1;exitY=0.5;exitDx=0;exitDy=0;entryX=0;entryY=0.5;entryDx=0;entryDy=0;shadow=1;strokeColor=default;strokeWidth=4;align=center;verticalAlign=middle;fontFamily=Helvetica;fontSize=14;fontColor=default;labelBackgroundColor=default;endArrow=classic;flowAnimation=0;curved=0;" edge="1" parent="1" source="YtOpJtN7zABE95JCtQtZ-1" target="YtOpJtN7zABE95JCtQtZ-3">
          <mxGeometry relative="1" as="geometry" />
        </mxCell>
        <mxCell id="vbBbySqdFZsMvgRl_-CA-2" style="edgeStyle=orthogonalEdgeStyle;rounded=1;orthogonalLoop=1;jettySize=auto;html=1;exitX=1;exitY=0.5;exitDx=0;exitDy=0;shadow=1;strokeColor=default;strokeWidth=4;align=center;verticalAlign=middle;fontFamily=Helvetica;fontSize=14;fontColor=default;labelBackgroundColor=default;endArrow=classic;flowAnimation=0;curved=0;" edge="1" parent="1" source="YtOpJtN7zABE95JCtQtZ-1" target="YtOpJtN7zABE95JCtQtZ-21">
          <mxGeometry relative="1" as="geometry" />
        </mxCell>
        <mxCell id="vbBbySqdFZsMvgRl_-CA-3" style="edgeStyle=orthogonalEdgeStyle;rounded=1;orthogonalLoop=1;jettySize=auto;html=1;exitX=1;exitY=0.5;exitDx=0;exitDy=0;entryX=0;entryY=0.5;entryDx=0;entryDy=0;shadow=1;strokeColor=default;strokeWidth=4;align=center;verticalAlign=middle;fontFamily=Helvetica;fontSize=14;fontColor=default;labelBackgroundColor=default;endArrow=classic;flowAnimation=0;curved=0;" edge="1" parent="1" source="YtOpJtN7zABE95JCtQtZ-1" target="YtOpJtN7zABE95JCtQtZ-23">
          <mxGeometry relative="1" as="geometry" />
        </mxCell>
        <mxCell id="YtOpJtN7zABE95JCtQtZ-1" value="Input Sentence" style="rounded=1;html=1;glass=0;shadow=1;pointerEvents=0;align=center;verticalAlign=middle;fontFamily=Helvetica;fontSize=14;fillColor=#d5e8d4;strokeColor=#82b366;textShadow=1;whiteSpace=wrap;" parent="1" vertex="1">
          <mxGeometry x="-740" y="442.5" width="120" height="60" as="geometry" />
        </mxCell>
        <mxCell id="YtOpJtN7zABE95JCtQtZ-2" value="" style="group;textShadow=1;whiteSpace=wrap;fontSize=14;" parent="1" vertex="1" connectable="0">
          <mxGeometry x="-568.09" y="220" width="210" height="190" as="geometry" />
        </mxCell>
        <mxCell id="YtOpJtN7zABE95JCtQtZ-3" value="&lt;span style=&quot;font-style: normal;&quot;&gt;&lt;b&gt;&lt;font&gt;Large Language Model&lt;/font&gt;&lt;/b&gt;&lt;/span&gt;" style="rounded=1;html=1;fillColor=#CCE5FF;strokeColor=#3399FF;fontSize=14;fontStyle=2;shadow=1;textShadow=1;labelPosition=center;verticalLabelPosition=middle;align=center;verticalAlign=top;whiteSpace=wrap;" parent="YtOpJtN7zABE95JCtQtZ-2" vertex="1">
          <mxGeometry width="210" height="181.36363636363637" as="geometry" />
        </mxCell>
        <mxCell id="YtOpJtN7zABE95JCtQtZ-4" style="edgeStyle=orthogonalEdgeStyle;rounded=0;orthogonalLoop=1;jettySize=auto;html=1;strokeWidth=4;exitX=0.5;exitY=1;exitDx=0;exitDy=0;entryX=0.5;entryY=0;entryDx=0;entryDy=0;shadow=1;textShadow=1;flowAnimation=0;fontSize=14;" parent="YtOpJtN7zABE95JCtQtZ-2" source="YtOpJtN7zABE95JCtQtZ-5" target="YtOpJtN7zABE95JCtQtZ-6" edge="1">
          <mxGeometry relative="1" as="geometry">
            <mxPoint x="105" y="72.19999999999992" as="sourcePoint" />
            <mxPoint x="105" y="114" as="targetPoint" />
            <Array as="points" />
          </mxGeometry>
        </mxCell>
        <mxCell id="YtOpJtN7zABE95JCtQtZ-5" value="&lt;div&gt;LLM&lt;/div&gt;" style="rounded=1;html=1;shadow=1;textShadow=1;whiteSpace=wrap;fontSize=14;" parent="YtOpJtN7zABE95JCtQtZ-2" vertex="1">
          <mxGeometry x="45" y="34.54545454545455" width="120" height="43.18181818181818" as="geometry" />
        </mxCell>
        <mxCell id="YtOpJtN7zABE95JCtQtZ-6" value="Classification Head" style="rounded=1;html=1;shadow=1;textShadow=1;whiteSpace=wrap;fontSize=14;" parent="YtOpJtN7zABE95JCtQtZ-2" vertex="1">
          <mxGeometry x="45" y="103.63636363636364" width="120" height="43.18181818181818" as="geometry" />
        </mxCell>
        <mxCell id="YtOpJtN7zABE95JCtQtZ-17" value="&lt;div&gt;&lt;i&gt;&lt;font&gt;Final predictions&lt;/font&gt;&lt;/i&gt;&lt;/div&gt;" style="rounded=1;html=1;shadow=1;strokeColor=#9673A6;align=center;verticalAlign=top;fontFamily=Helvetica;fontSize=14;fontColor=default;fontStyle=2;fillColor=#e1d5e7;textShadow=1;whiteSpace=wrap;" parent="1" vertex="1">
          <mxGeometry x="-60" y="457.5" width="120" height="30" as="geometry" />
        </mxCell>
        <mxCell id="vbBbySqdFZsMvgRl_-CA-11" style="edgeStyle=orthogonalEdgeStyle;rounded=0;orthogonalLoop=1;jettySize=auto;html=1;exitX=0.5;exitY=1;exitDx=0;exitDy=0;entryX=0.5;entryY=0;entryDx=0;entryDy=0;" edge="1" parent="1" source="YtOpJtN7zABE95JCtQtZ-19" target="YtOpJtN7zABE95JCtQtZ-17">
          <mxGeometry relative="1" as="geometry" />
        </mxCell>
        <mxCell id="YtOpJtN7zABE95JCtQtZ-19" value="Computed on dev-test" style="rounded=1;html=1;shadow=1;textShadow=1;whiteSpace=wrap;fontSize=14;" parent="1" vertex="1">
          <mxGeometry x="-69.99999999999989" y="330" width="140" height="20" as="geometry" />
        </mxCell>
        <mxCell id="vbBbySqdFZsMvgRl_-CA-5" style="edgeStyle=orthogonalEdgeStyle;rounded=1;orthogonalLoop=1;jettySize=auto;html=1;exitX=1;exitY=0.5;exitDx=0;exitDy=0;entryX=0;entryY=0.5;entryDx=0;entryDy=0;shadow=1;strokeColor=default;strokeWidth=4;align=center;verticalAlign=middle;fontFamily=Helvetica;fontSize=14;fontColor=default;labelBackgroundColor=default;endArrow=classic;flowAnimation=0;curved=0;" edge="1" parent="1" source="YtOpJtN7zABE95JCtQtZ-21" target="YtOpJtN7zABE95JCtQtZ-8">
          <mxGeometry relative="1" as="geometry" />
        </mxCell>
        <mxCell id="YtOpJtN7zABE95JCtQtZ-21" value="&lt;span style=&quot;font-style: normal;&quot;&gt;&lt;b&gt;&lt;font&gt;Bidirectional Transformer&lt;/font&gt;&lt;/b&gt;&lt;/span&gt;" style="rounded=1;html=1;fillColor=#CCE5FF;strokeColor=#3399FF;fontSize=14;fontStyle=2;shadow=1;textShadow=1;labelPosition=center;verticalLabelPosition=middle;align=center;verticalAlign=top;whiteSpace=wrap;" parent="1" vertex="1">
          <mxGeometry x="-568.09" y="410" width="210" height="125" as="geometry" />
        </mxCell>
        <mxCell id="YtOpJtN7zABE95JCtQtZ-22" value="&lt;div&gt;mDeBERTa-v3 / ModernBERT&lt;/div&gt;" style="rounded=1;html=1;shadow=1;textShadow=1;whiteSpace=wrap;fontSize=14;" parent="1" vertex="1">
          <mxGeometry x="-523.09" y="445" width="120" height="50" as="geometry" />
        </mxCell>
        <mxCell id="vbBbySqdFZsMvgRl_-CA-6" style="edgeStyle=orthogonalEdgeStyle;rounded=1;orthogonalLoop=1;jettySize=auto;html=1;exitX=1;exitY=0.5;exitDx=0;exitDy=0;entryX=0;entryY=0.5;entryDx=0;entryDy=0;shadow=1;strokeColor=default;strokeWidth=4;align=center;verticalAlign=middle;fontFamily=Helvetica;fontSize=14;fontColor=default;labelBackgroundColor=default;endArrow=classic;flowAnimation=0;curved=0;" edge="1" parent="1" source="YtOpJtN7zABE95JCtQtZ-23" target="YtOpJtN7zABE95JCtQtZ-8">
          <mxGeometry relative="1" as="geometry" />
        </mxCell>
        <mxCell id="YtOpJtN7zABE95JCtQtZ-23" value="&lt;span style=&quot;font-style: normal;&quot;&gt;&lt;b&gt;&lt;font&gt;Bidirectional Transformer&amp;nbsp;&lt;/font&gt;&lt;/b&gt;&lt;/span&gt;&lt;div&gt;&lt;span style=&quot;font-style: normal;&quot;&gt;&lt;b&gt;&lt;font&gt;with sentiment&lt;/font&gt;&lt;/b&gt;&lt;/span&gt;&lt;/div&gt;" style="rounded=1;html=1;fillColor=#CCE5FF;strokeColor=#3399FF;fontSize=14;fontStyle=2;shadow=1;textShadow=1;labelPosition=center;verticalLabelPosition=middle;align=center;verticalAlign=top;whiteSpace=wrap;container=0;" parent="1" vertex="1">
          <mxGeometry x="-567.32" y="545" width="209.23" height="210" as="geometry" />
        </mxCell>
        <mxCell id="YtOpJtN7zABE95JCtQtZ-24" value="Classifier" style="rounded=1;html=1;glass=0;shadow=1;textShadow=1;whiteSpace=wrap;fontSize=14;" parent="1" vertex="1">
          <mxGeometry x="-501.93615384615384" y="700.4545454545455" width="78.46153846153847" height="36.36363636363636" as="geometry" />
        </mxCell>
        <mxCell id="YtOpJtN7zABE95JCtQtZ-25" style="edgeStyle=orthogonalEdgeStyle;rounded=0;orthogonalLoop=1;jettySize=auto;html=1;strokeWidth=4;exitX=0.5;exitY=1;exitDx=0;exitDy=0;entryX=0.5;entryY=0;entryDx=0;entryDy=0;shadow=1;textShadow=1;flowAnimation=0;fontSize=14;" parent="1" source="YtOpJtN7zABE95JCtQtZ-28" target="YtOpJtN7zABE95JCtQtZ-24" edge="1">
          <mxGeometry relative="1" as="geometry">
            <mxPoint x="-486.2438461538461" y="655" as="sourcePoint" />
            <mxPoint x="-456.8207692307692" y="682.2727272727273" as="targetPoint" />
            <Array as="points" />
          </mxGeometry>
        </mxCell>
        <mxCell id="YtOpJtN7zABE95JCtQtZ-26" value="mDeBERTa-v3" style="rounded=1;html=1;glass=0;shadow=1;textShadow=1;whiteSpace=wrap;fontSize=14;" parent="1" vertex="1">
          <mxGeometry x="-558.0900339338235" y="592.7225000000001" width="90.76966628676469" height="38.178000000000004" as="geometry" />
        </mxCell>
        <mxCell id="YtOpJtN7zABE95JCtQtZ-27" value="twitter-xlm-roberta..." style="rounded=1;html=1;glass=0;shadow=1;textShadow=1;whiteSpace=wrap;fontSize=14;" parent="1" vertex="1">
          <mxGeometry x="-449.6296634558824" y="592.7225000000001" width="81.53970022058823" height="38.178000000000004" as="geometry" />
        </mxCell>
        <mxCell id="YtOpJtN7zABE95JCtQtZ-28" value="&lt;font&gt;+&lt;/font&gt;" style="ellipse;html=1;aspect=fixed;shadow=1;textShadow=1;whiteSpace=wrap;fontSize=14;" parent="1" vertex="1">
          <mxGeometry x="-475.781875" y="642.459090909091" width="26.15375" height="26.15375" as="geometry" />
        </mxCell>
        <mxCell id="YtOpJtN7zABE95JCtQtZ-29" style="edgeStyle=orthogonalEdgeStyle;rounded=1;orthogonalLoop=1;jettySize=auto;html=1;strokeWidth=4;exitX=0.5;exitY=1;exitDx=0;exitDy=0;entryX=0;entryY=0.5;entryDx=0;entryDy=0;shadow=1;textShadow=1;flowAnimation=0;curved=0;fontSize=14;" parent="1" source="YtOpJtN7zABE95JCtQtZ-26" target="YtOpJtN7zABE95JCtQtZ-28" edge="1">
          <mxGeometry relative="1" as="geometry">
            <mxPoint x="-825.58828125" y="634.7272727272727" as="sourcePoint" />
            <mxPoint x="-825.58828125" y="680.5454545454545" as="targetPoint" />
            <Array as="points" />
          </mxGeometry>
        </mxCell>
        <mxCell id="YtOpJtN7zABE95JCtQtZ-30" style="edgeStyle=orthogonalEdgeStyle;rounded=1;orthogonalLoop=1;jettySize=auto;html=1;strokeWidth=4;exitX=0.5;exitY=1;exitDx=0;exitDy=0;entryX=1;entryY=0.5;entryDx=0;entryDy=0;shadow=1;textShadow=1;flowAnimation=0;curved=0;fontSize=14;" parent="1" source="YtOpJtN7zABE95JCtQtZ-27" target="YtOpJtN7zABE95JCtQtZ-28" edge="1">
          <mxGeometry relative="1" as="geometry">
            <mxPoint x="-492.7818125" y="640.4545454545455" as="sourcePoint" />
            <mxPoint x="-463.35884375" y="669.0909090909091" as="targetPoint" />
            <Array as="points" />
          </mxGeometry>
        </mxCell>
        <mxCell id="YtOpJtN7zABE95JCtQtZ-9" value="Raw Logit" style="rounded=1;html=1;shadow=1;textShadow=1;whiteSpace=wrap;fontSize=14;" parent="1" vertex="1">
          <mxGeometry x="-248" y="440" width="120" height="20" as="geometry" />
        </mxCell>
        <mxCell id="YtOpJtN7zABE95JCtQtZ-10" value="Softmax" style="rounded=1;html=1;shadow=1;textShadow=1;whiteSpace=wrap;fontSize=14;" parent="1" vertex="1">
          <mxGeometry x="-248" y="475" width="120" height="20" as="geometry" />
        </mxCell>
        <mxCell id="YtOpJtN7zABE95JCtQtZ-11" value="&lt;div&gt;Threshold &lt;br&gt;&lt;/div&gt;" style="rounded=1;html=1;shadow=1;textShadow=1;whiteSpace=wrap;fontSize=14;" parent="1" vertex="1">
          <mxGeometry x="-248" y="510" width="120" height="20" as="geometry" />
        </mxCell>
        <mxCell id="vbBbySqdFZsMvgRl_-CA-7" style="edgeStyle=orthogonalEdgeStyle;rounded=0;orthogonalLoop=1;jettySize=auto;html=1;exitX=0.5;exitY=1;exitDx=0;exitDy=0;entryX=0.5;entryY=0;entryDx=0;entryDy=0;" edge="1" parent="1" source="YtOpJtN7zABE95JCtQtZ-13" target="YtOpJtN7zABE95JCtQtZ-8">
          <mxGeometry relative="1" as="geometry" />
        </mxCell>
        <mxCell id="YtOpJtN7zABE95JCtQtZ-13" value="Optimized on dev" style="rounded=1;html=1;movable=1;resizable=1;rotatable=1;deletable=1;editable=1;locked=0;connectable=1;shadow=1;textShadow=1;whiteSpace=wrap;fontSize=14;" parent="1" vertex="1">
          <mxGeometry x="-250" y="330" width="120" height="20" as="geometry" />
        </mxCell>
        <mxCell id="YtOpJtN7zABE95JCtQtZ-14" value="" style="endArrow=none;html=1;rounded=0;entryX=0.5;entryY=1;entryDx=0;entryDy=0;exitX=0.5;exitY=0;exitDx=0;exitDy=0;shadow=1;textShadow=1;fontSize=14;" parent="1" source="YtOpJtN7zABE95JCtQtZ-10" target="YtOpJtN7zABE95JCtQtZ-9" edge="1">
          <mxGeometry width="50" height="50" relative="1" as="geometry">
            <mxPoint x="-283" y="473" as="sourcePoint" />
            <mxPoint x="-233" y="423" as="targetPoint" />
          </mxGeometry>
        </mxCell>
        <mxCell id="YtOpJtN7zABE95JCtQtZ-15" value="" style="endArrow=none;html=1;rounded=0;exitX=0.5;exitY=0;exitDx=0;exitDy=0;entryX=0.5;entryY=1;entryDx=0;entryDy=0;shadow=1;textShadow=1;fontSize=14;" parent="1" source="YtOpJtN7zABE95JCtQtZ-11" target="YtOpJtN7zABE95JCtQtZ-10" edge="1">
          <mxGeometry width="50" height="50" relative="1" as="geometry">
            <mxPoint x="-98" y="484" as="sourcePoint" />
            <mxPoint x="-48" y="434" as="targetPoint" />
          </mxGeometry>
        </mxCell>
        <mxCell id="YtOpJtN7zABE95JCtQtZ-16" value="&lt;b&gt;&lt;font&gt;Decision Threshold&amp;nbsp; Calibration&lt;/font&gt;&lt;/b&gt;" style="text;html=1;align=center;verticalAlign=middle;rounded=0;shadow=1;textShadow=1;whiteSpace=wrap;fontSize=14;" parent="1" vertex="1">
          <mxGeometry x="-258" y="390" width="140" height="30" as="geometry" />
        </mxCell>
        <mxCell id="vbBbySqdFZsMvgRl_-CA-4" style="edgeStyle=orthogonalEdgeStyle;rounded=1;orthogonalLoop=1;jettySize=auto;html=1;exitX=1;exitY=0.5;exitDx=0;exitDy=0;entryX=0;entryY=0.5;entryDx=0;entryDy=0;shadow=1;strokeColor=default;strokeWidth=4;align=center;verticalAlign=middle;fontFamily=Helvetica;fontSize=14;fontColor=default;labelBackgroundColor=default;endArrow=classic;flowAnimation=0;curved=0;" edge="1" parent="1" source="YtOpJtN7zABE95JCtQtZ-3" target="YtOpJtN7zABE95JCtQtZ-8">
          <mxGeometry relative="1" as="geometry" />
        </mxCell>
      </root>
    </mxGraphModel>
  </diagram>
</mxfile>
